<?xml version="1.0" encoding="UTF-8" standalone="no"?>
<!-- Created with Inkscape (http://www.inkscape.org/) -->

<svg
   width="400"
   height="400"
   viewBox="0 0 105.83333 105.83333"
   version="1.1"
   id="dmbon-svg-logo"
   xml:space="preserve"
   inkscape:version="1.1.2 (0a00cf5339, 2022-02-04)"
   sodipodi:docname="dmbon-logo-text-400x400.svg"
   xmlns:inkscape="http://www.inkscape.org/namespaces/inkscape"
   xmlns:sodipodi="http://sodipodi.sourceforge.net/DTD/sodipodi-0.dtd"
   xmlns="http://www.w3.org/2000/svg"
   xmlns:svg="http://www.w3.org/2000/svg"><sodipodi:namedview
     id="namedview7"
     pagecolor="#ffffff"
     bordercolor="#000000"
     borderopacity="0.25"
     inkscape:showpageshadow="2"
     inkscape:pageopacity="0.0"
     inkscape:pagecheckerboard="0"
     inkscape:deskcolor="#d1d1d1"
     inkscape:document-units="px"
     showgrid="false"
     inkscape:zoom="2.8284271"
     inkscape:cx="159.80613"
     inkscape:cy="120.38493"
     inkscape:window-width="1920"
     inkscape:window-height="1016"
     inkscape:window-x="0"
     inkscape:window-y="0"
     inkscape:window-maximized="1"
     inkscape:current-layer="base"
     inkscape:pageshadow="2"
     fit-margin-top="0"
     fit-margin-left="0"
     fit-margin-right="0"
     fit-margin-bottom="0"
     units="px" /><defs
     id="defs2" /><g
     inkscape:label="Base"
     inkscape:groupmode="layer"
     id="base"
     transform="translate(1.477303,2.2381586)"><rect
       style="opacity:1;fill:#354d90;fill-opacity:1;fill-rule:nonzero;stroke:#eef9f9;stroke-width:0.529357;stroke-linecap:round;stroke-linejoin:miter;stroke-dasharray:none;stroke-dashoffset:0;stroke-opacity:1;paint-order:markers stroke fill"
       id="back"
       width="105.30398"
       height="105.30397"
       x="-1.2126241"
       y="-1.9734795" /><path
       id="logo"
       style="fill:#31b7bc;fill-opacity:0;fill-rule:nonzero;stroke:#31b7bc;stroke-width:1.07082;stroke-linecap:round;stroke-linejoin:miter;stroke-dasharray:none;stroke-dashoffset:0;stroke-opacity:1;paint-order:markers stroke fill"
       inkscape:path-effect="#path-effect8590"
       inkscape:original-d="m 21.143116,57.168036 c 0.52847,0.462439 1.056672,0.924616 1.584608,1.386522 0.110311,0.374424 0.22035,0.748556 0.330126,1.122436 M 6.1757486,59.046026 C 6.6475845,58.912184 7.1191481,58.778079 7.5904516,58.643803 7.7793719,58.300565 7.968022,57.957126 8.1564099,57.613475 8.131656,57.428612 8.1066802,57.243538 8.081402,57.058261 M 6.7305096,41.733156 c 0.3564111,0.56807 0.712569,1.135897 1.0684698,1.703503 0.2935674,0.454514 0.5868645,0.908756 0.8799166,1.362797 m 12.662295,-0.836491 c 0.484453,-0.461905 0.96864,-0.924093 1.452559,-1.386532 0.176337,-0.285845 0.352401,-0.571952 0.528202,-0.858331 m -3.716708,-1.935998 c -0.621245,0.186718 -1.242757,0.373174 -1.864535,0.559358 -0.341571,0.155652 -0.683396,0.311022 -1.025493,0.46614 -0.403724,0.279946 -0.8077,0.55962 -1.211948,0.839042 -0.621259,0.279946 -1.242757,0.55962 -1.864536,0.839031 -0.279421,0.311032 -0.559096,0.621782 -0.839042,0.93227 -0.496952,0.186728 -0.994151,0.373174 -1.491629,0.559358 -0.310492,0.09347 -0.621244,0.186728 -0.932266,0.279684 -0.4969541,0.03136 -0.9941509,0.06241 -1.491629,0.09327 -0.3726478,-0.09297 -0.7455487,-0.186183 -1.1187218,-0.279684 -0.5901808,-0.03085 -1.1806046,-0.06191 -1.7713087,-0.09327 -0.2794187,0.124576 -0.5590926,0.24888 -0.8390398,0.372912 -0.3726478,0.435336 -0.7455486,0.87038 -1.1187218,1.305172 -0.1861918,0.435336 -0.3726397,0.87039 -0.5593598,1.305182 -0.2172668,0.621782 -0.4347918,1.243282 -0.6525889,1.864529 -0.030804,0.715021 -0.06188,1.429748 -0.093228,2.144214 0.031348,0.528564 0.062424,1.056836 0.093228,1.584856 0.2178002,0.746096 0.4353251,1.4919 0.6525889,2.237441 0.2488751,0.311032 0.497475,0.621782 0.7458128,0.93227 0.4353332,0.311032 0.870384,0.621782 1.3051757,0.93227 0.3110292,0.155642 0.6217781,0.311022 0.9322658,0.46613 0.7460962,2.72e-4 1.4918959,2.72e-4 2.2374446,0 0.5596372,2.72e-4 1.118986,2.72e-4 1.678082,0 0.528563,0.155652 1.056837,0.311022 1.584855,0.46614 0.497486,0.342108 0.994685,0.683924 1.491629,1.025498 0.497485,0.24887 0.994685,0.497468 1.491629,0.745803 0.373181,0.279957 0.74608,0.55963 1.11872,0.839052 0.497487,0.217794 0.994685,0.435316 1.491628,0.652586 0.683943,0.217794 1.367594,0.435326 2.050988,0.652586 0.497488,-0.124042 0.994688,-0.248336 1.491628,-0.372912 0.559641,-0.310498 1.118989,-0.621248 1.678083,-0.93226 0.373181,-0.37265 0.746082,-0.745551 1.118722,-1.118726 0.311029,-0.559105 0.621778,-1.118453 0.932266,-1.678083 0.186726,-0.37265 0.373176,-0.745542 0.559363,-1.118726 -0.06188,-0.37264 -0.124037,-0.745542 -0.186453,-1.118716 -0.341574,-0.248346 -0.683398,-0.496944 -1.025496,-0.745814 -0.279419,-0.372649 -0.559093,-0.745551 -0.83904,-1.118725 -0.155115,-0.310488 -0.310491,-0.621238 -0.466136,-0.93226 -0.186189,-0.37265 -0.37264,-0.745552 -0.55936,-1.118726 0.06242,-0.341574 0.124568,-0.68339 0.186454,-1.025498 0.0935,-0.279412 0.18672,-0.559096 0.27968,-0.839042 0.217799,-0.372639 0.435325,-0.745541 0.652589,-1.118715 0.2178,-0.310498 0.435325,-0.621248 0.652586,-0.93227 0.311029,-0.434802 0.621779,-0.869846 0.932269,-1.305172 0.124571,-0.248346 0.24887,-0.496944 0.372907,-0.745814 -0.155115,-0.52803 -0.310491,-1.056302 -0.466133,-1.584856 -0.248344,-0.341574 -0.496944,-0.6834 -0.745816,-1.025498 -0.217267,-0.279422 -0.434792,-0.559095 -0.652587,-0.839042 -0.217266,-0.248335 -0.434792,-0.496943 -0.652589,-0.745813 -0.279418,-0.124032 -0.559093,-0.248336 -0.83904,-0.372902 -0.372646,-0.124042 -0.745548,-0.248346 -1.118721,-0.372912 -0.4348,-0.186194 -0.86985,-0.37264 -1.305176,-0.559358 z m -8.25404,0.186456 c -0.714471,0.06241 -1.4292096,0.124566 -2.1442147,0.186456 -0.6523328,0.311022 -1.3049085,0.621772 -1.9577616,0.93226 -0.3104958,0.342108 -0.6212447,0.683934 -0.9322688,1.025497 -0.3415708,0.373185 -0.6833947,0.746076 -1.0254928,1.118716 -0.1240398,0.528564 -0.2483388,1.056836 -0.3729069,1.584856 -0.06189,0.186728 -0.1240368,0.373174 -0.186456,0.559368 0.0935,0.279946 0.1867232,0.55962 0.279683,0.839032 0.3110261,0.40426 0.621778,0.808238 0.9322658,1.211954 0.3421072,0.342108 0.683931,0.683934 1.0254958,1.025498 0.1867221,0.466402 0.3731731,0.932532 0.5593598,1.398399 0.062414,0.435336 0.1245702,0.87038 0.186453,1.305172 -0.2794188,0.652868 -0.5590927,1.305444 -0.8390398,1.957768 -0.4347998,0.466402 -0.8698496,0.932532 -1.3051748,1.398399 -0.3104957,0.342109 -0.6212456,0.683924 -0.9322698,1.025498 2.672e-4,0.217794 2.672e-4,0.435316 0,0.652586 0.062424,0.466402 0.1245712,0.932532 0.186456,1.3984 0.2488752,0.40426 0.4974751,0.808228 0.7458138,1.211943 0.4664102,0.373185 0.9325351,0.746087 1.3984018,1.118726 0.3110292,0.279956 0.621778,0.55963 0.9322658,0.839042 0.5907151,0.217794 1.1811409,0.435326 1.7713086,0.652586 0.5285628,2.62e-4 1.0568368,2.62e-4 1.5848558,0 0.435336,-0.09297 0.870384,-0.186184 1.305175,-0.279684 0.528563,-0.341564 1.056837,-0.6834 1.584855,-1.025488 0.528562,-0.310498 1.056837,-0.621247 1.584856,-0.93227 0.559639,-0.372649 1.118989,-0.745551 1.678082,-1.118725 0.311029,-0.21727 0.621778,-0.434792 0.932268,-0.652586 0.435334,-0.06191 0.870381,-0.124032 1.305173,-0.186456 0.373181,-0.09297 0.746082,-0.186184 1.118722,-0.279674 0.528563,0.124566 1.056837,0.24887 1.584856,0.372902 0.46641,-0.06191 0.932536,-0.124032 1.398401,-0.186456 0.342105,2.72e-4 0.683931,2.72e-4 1.025493,0 0.373182,-0.434792 0.746083,-0.869846 1.118723,-1.305172 0.279952,-0.559106 0.559626,-1.118454 0.839042,-1.678084 0.155648,-0.683409 0.311021,-1.367051 0.466134,-2.050985 2.66e-4,-0.776638 2.66e-4,-1.553518 0,-2.33067 -0.09297,-0.683409 -0.186187,-1.367061 -0.27968,-2.050985 -0.217267,-0.52803 -0.434792,-1.056312 -0.65259,-1.584856 -0.279418,-0.37265 -0.559093,-0.745552 -0.839039,-1.118726 -0.248344,-0.310498 -0.496944,-0.621248 -0.745816,-0.93227 -0.465875,-0.03085 -0.931999,-0.06191 -1.3984,-0.09327 -0.403724,0.06241 -0.8077,0.124576 -1.211948,0.186456 -0.528029,0.06241 -1.056304,0.124566 -1.584855,0.186456 -0.403726,-0.09297 -0.807699,-0.186184 -1.21195,-0.279684 -0.403721,-0.09297 -0.807697,-0.186184 -1.211948,-0.279674 -0.34157,-0.248346 -0.683394,-0.496944 -1.025493,-0.745814 -0.4348,-0.248346 -0.86985,-0.496944 -1.305175,-0.745814 -0.465878,-0.21727 -0.932003,-0.434792 -1.398403,-0.652586 C 13.713207,41.242877 13.091705,40.8389 12.469927,40.434649 12.097279,40.279532 11.72438,40.124162 11.351204,39.96852 Z m 3.674902,-1.414361 c -0.02883,0.0036 -0.100337,0.01109 -0.243334,0.02763 -0.285996,0.03297 -0.85819,0.09902 -1.309415,0.198001 -0.451224,0.09902 -0.781582,0.231366 -1.045761,0.407466 -0.264178,0.176101 -0.461961,0.396023 -0.693005,0.583063 -0.231045,0.187041 -0.495122,0.341352 -0.649237,0.583588 -0.154116,0.242235 -0.198017,0.572204 -0.28606,0.847239 -0.08804,0.275026 -0.220058,0.495139 -0.374119,0.748234 -0.15406,0.253095 -0.330255,0.539302 -0.4402926,0.803469 -0.1100374,0.264166 -0.1541892,0.506139 -0.2532341,0.759173 -0.099046,0.253045 -0.252981,0.517231 -0.4178874,0.649239 -0.1649055,0.132007 -0.341113,0.131816 -0.4402921,0.297006 -0.099177,0.165191 -0.1210824,0.495069 -0.1761178,0.85818 -0.055033,0.363111 -0.1432561,0.759265 -0.2422909,1.0343 -0.099036,0.275026 -0.2091802,0.429277 -0.3522346,0.627349 -0.1430545,0.198071 -0.3187851,0.440196 -0.5278302,0.649238 -0.2090451,0.209042 -0.4514015,0.385324 -0.7925277,0.616408 -0.3411261,0.231093 -0.7810894,0.517049 -1.3312989,0.858179 -0.5502105,0.34114 -1.2104393,0.737435 -1.6725924,0.99053 -0.4621532,0.253095 -0.7265018,0.36295 -0.869644,0.473117 -0.1431411,0.110178 -0.164981,0.219983 -0.04377,0.385062 0.1212135,0.16509 0.3851558,0.385466 0.7372956,0.517413 0.3521389,0.131947 0.7923139,0.17606 1.199472,0.352231 0.4071581,0.176182 0.7816682,0.484219 1.1338192,0.737294 0.3521509,0.253075 0.6821836,0.451146 1.0342983,0.737304 0.3521136,0.286147 0.7264271,0.660057 1.0014709,1.04523 0.2750427,0.385183 0.4508187,0.781619 0.6158885,1.144771 0.1650698,0.363141 0.3193699,0.69316 0.5064672,1.03429 0.1870973,0.34113 0.4070451,0.693311 0.5830621,1.100475 0.176018,0.407164 0.3082261,0.869422 0.4402929,1.276586 0.132067,0.407165 0.26388,0.759275 0.406945,1.111416 0.143065,0.352141 0.297187,0.703808 0.528352,1.011896 0.231165,0.308078 0.539296,0.572445 0.814412,0.792518 0.275116,0.220083 0.517039,0.396245 0.858181,0.550243 0.341141,0.153999 0.781526,0.286047 1.254704,0.385062 0.473178,0.09902 0.979076,0.164939 1.540243,0.120886 0.561167,-0.04406 1.177661,-0.197941 1.639766,-0.396002 0.462104,-0.198072 0.770204,-0.44063 1.034297,-0.660703 0.264094,-0.220083 0.483957,-0.417953 0.693004,-0.693009 0.209049,-0.275056 0.407175,-0.627136 0.550237,-1.04524 0.14306,-0.418104 0.231132,-0.902202 0.363176,-1.309417 0.132045,-0.407214 0.30818,-0.737304 0.451235,-1.01241 0.143054,-0.275096 0.252779,-0.495159 0.406945,-0.638298 0.154166,-0.143129 0.352685,-0.209153 0.473641,-0.473117 0.120955,-0.263955 0.16482,-0.726465 0.230828,-1.067645 0.06601,-0.341181 0.154067,-0.561345 0.275119,-0.803469 0.121051,-0.242125 0.274871,-0.506079 0.495003,-0.748234 0.220133,-0.242155 0.506234,-0.462318 0.825354,-0.715413 0.319121,-0.253095 0.671189,-0.53889 1.111413,-0.792005 0.440226,-0.253115 0.968618,-0.473268 1.441764,-0.726353 0.473146,-0.253095 0.891279,-0.539152 1.210415,-0.748234 0.319135,-0.209093 0.539213,-0.341402 0.440292,-0.528353 -0.09893,-0.18696 -0.517257,-0.428832 -0.913411,-0.604953 -0.396156,-0.176111 -0.770001,-0.286409 -1.067125,-0.418407 -0.297123,-0.131987 -0.517428,-0.285734 -0.792527,-0.428832 -0.275099,-0.143089 -0.604801,-0.275046 -0.901949,-0.484058 -0.297149,-0.209012 -0.561699,-0.49529 -0.836817,-0.814409 -0.275117,-0.319119 -0.561212,-0.671381 -0.825354,-1.089535 -0.264142,-0.418145 -0.505784,-0.902273 -0.714889,-1.397473 -0.209107,-0.495189 -0.385342,-1.00155 -0.61641,-1.540762 -0.23107,-0.539212 -0.517479,-1.110972 -0.781586,-1.650184 -0.264106,-0.539212 -0.505811,-1.045624 -0.81389,-1.529822 -0.30808,-0.484209 -0.682623,-0.946427 -1.144762,-1.265646 -0.462139,-0.31922 -1.012071,-0.494978 -1.529301,-0.583064 -0.376345,-0.04666 -0.798683,-0.09929 -1.198421,-0.149331 2.62e-4,3.63e-4 2.58e-4,5.23e-4 -7e-6,2.94e-4 z"
       d="m 21.143116,57.168036 c 0.528485,0.462421 1.056689,0.924596 1.375718,1.342796 0.319029,0.418201 0.429067,0.792333 0.539016,1.166162 M 6.1757486,59.046026 C 6.6475033,58.911898 7.1190753,58.777823 7.4490777,58.539114 7.77908,58.300405 7.9677306,57.956966 8.049585,57.692804 8.1314394,57.428641 8.1064369,57.243571 8.081402,57.058261 M 6.7305096,41.733156 c 0.3563345,0.568118 0.7124882,1.135948 1.0372269,1.647005 0.3247386,0.511058 0.6180309,0.965303 0.9111595,1.419295 m 12.662295,-0.836491 c 0.48419,-0.462181 0.968382,-0.924363 1.298482,-1.298467 0.3301,-0.374103 0.506165,-0.66021 0.682279,-0.946396 M 19.512264,39.9686 c -0.52836,-9.5e-5 -1.149873,0.186358 -1.631573,0.357274 -0.4817,0.170917 -0.823522,0.326293 -1.196465,0.543833 -0.372942,0.217541 -0.776917,0.497216 -1.289639,0.77689 -0.512721,0.279675 -1.134221,0.559346 -1.584888,0.854602 -0.450668,0.295256 -0.730343,0.606006 -1.118713,0.854577 -0.38837,0.248571 -0.885568,0.435019 -1.289537,0.574861 -0.403968,0.139842 -0.714729,0.233071 -1.118677,0.295248 -0.4039489,0.06218 -0.9011433,0.09327 -1.3361758,0.06224 -0.4350326,-0.03102 -0.8079303,-0.124248 -1.2896256,-0.18644 -0.4816953,-0.06219 -1.0721176,-0.09328 -1.5072577,-0.04671 -0.4351401,0.04657 -0.714815,0.170876 -1.0411837,0.4506 -0.3263686,0.279724 -0.6992665,0.71477 -0.9789671,1.149887 -0.2797006,0.435118 -0.4661506,0.870171 -0.6681422,1.398471 -0.2019917,0.5283 -0.4195178,1.1498 -0.5438001,1.817984 -0.1242824,0.668184 -0.1553579,1.382911 -0.1553436,2.004439 1.43e-5,0.621529 0.031089,1.149801 0.1554326,1.786877 0.1243431,0.637076 0.3418698,1.382879 0.5750097,1.911153 0.2331399,0.528274 0.4817392,0.839024 0.8236091,1.149745 0.3418699,0.310722 0.7769202,0.621472 1.1498379,0.854512 0.3729176,0.233039 0.6836692,0.388414 1.2119341,0.466022 0.528265,0.07761 1.2740647,0.07761 1.9266577,0.07761 0.6525929,0 1.2119417,0 1.7557967,0.07774 0.543855,0.07774 1.072128,0.233115 1.584875,0.481784 0.512747,0.248668 1.009941,0.59049 1.507165,0.885686 0.497223,0.295195 0.994423,0.543791 1.429475,0.807969 0.435052,0.264178 0.807949,0.543854 1.243024,0.792422 0.435075,0.248567 0.932272,0.466091 1.522715,0.683602 0.590442,0.217512 1.274095,0.435038 1.86447,0.481574 0.590376,0.04654 1.087574,-0.07776 1.615817,-0.2953 0.528244,-0.217534 1.087593,-0.528281 1.553684,-0.87009 0.466091,-0.341808 0.838991,-0.71471 1.1808,-1.180805 0.341809,-0.466095 0.652558,-1.025443 0.901163,-1.491575 0.248606,-0.466131 0.435053,-0.839025 0.497258,-1.211838 0.06221,-0.372812 5.5e-5,-0.745715 -0.201816,-1.056516 -0.201871,-0.310801 -0.543695,-0.5594 -0.854492,-0.87012 -0.310797,-0.31072 -0.590471,-0.683621 -0.808033,-1.025443 -0.217562,-0.341821 -0.372939,-0.65257 -0.543857,-0.994406 -0.170918,-0.341835 -0.357368,-0.714737 -0.419617,-1.072166 -0.06225,-0.357429 -1.01e-4,-0.699245 0.07758,-1.010031 0.07768,-0.310787 0.170909,-0.590469 0.32629,-0.9168 0.155381,-0.326332 0.372909,-0.699233 0.590447,-1.041083 0.217537,-0.341851 0.435062,-0.652601 0.699208,-1.025514 0.264147,-0.372913 0.574895,-0.807959 0.792418,-1.149766 0.217523,-0.341807 0.341822,-0.590405 0.326355,-0.97875 -0.01547,-0.388345 -0.17084,-0.916618 -0.372771,-1.35169 -0.201932,-0.435071 -0.450532,-0.776897 -0.683597,-1.08766 -0.233064,-0.310763 -0.450588,-0.590436 -0.668108,-0.854585 -0.21752,-0.264148 -0.43505,-0.512753 -0.683619,-0.699276 -0.24857,-0.186523 -0.528247,-0.310822 -0.854544,-0.435144 -0.326297,-0.124321 -0.6992,-0.248624 -1.103186,-0.403988 -0.403985,-0.155365 -0.839034,-0.341813 -1.367395,-0.341908 z m -8.518308,0.03102 c -0.357247,0.03107 -1.0719862,0.09322 -1.7557185,0.279657 -0.6837323,0.186438 -1.3363088,0.497186 -1.8180471,0.823517 -0.4817383,0.326331 -0.7924881,0.668156 -1.1187855,1.025529 -0.3262975,0.357373 -0.668118,0.730267 -0.9012038,1.180959 -0.2330857,0.450693 -0.3573848,0.978965 -0.4506171,1.336323 -0.093232,0.357357 -0.1553807,0.543803 -0.139763,0.776953 0.015618,0.233151 0.1088439,0.512824 0.3108991,0.854647 0.2020551,0.341824 0.5128059,0.745802 0.8391225,1.1187 0.3263166,0.372897 0.6681412,0.714722 0.9322147,1.118733 0.2640736,0.404012 0.4505255,0.870141 0.5747855,1.320731 0.1242601,0.450589 0.1864093,0.885634 0.077593,1.429379 -0.1088159,0.543745 -0.3884901,1.196321 -0.7458388,1.755626 -0.3573487,0.559305 -0.7924015,1.025432 -1.1653145,1.429421 -0.372913,0.403989 -0.6836578,0.745809 -0.8390322,1.025618 -0.1553745,0.279809 -0.1553745,0.497331 -0.1242785,0.839182 0.031096,0.341852 0.093247,0.807981 0.2487054,1.243052 0.1554581,0.435071 0.4040556,0.839041 0.7614806,1.227451 0.357425,0.38841 0.8235502,0.761312 1.2119916,1.087619 0.3884415,0.326306 0.6991899,0.605981 1.1498108,0.85452 0.4506208,0.248539 1.041049,0.466065 1.6003867,0.574769 0.5593377,0.108705 1.0876117,0.108705 1.5692567,0.06207 0.481645,-0.04664 0.916691,-0.139862 1.3983,-0.357393 0.481609,-0.217532 1.009889,-0.559358 1.538186,-0.885656 0.528296,-0.326297 1.05657,-0.637047 1.600389,-0.97888 0.543819,-0.341833 1.103169,-0.714734 1.538227,-1.009954 0.435058,-0.295219 0.745806,-0.512742 1.118804,-0.65258 0.372999,-0.139839 0.808042,-0.201989 1.212012,-0.279686 0.40397,-0.0777 0.776869,-0.17092 1.227532,-0.15532 0.450663,0.0156 0.978938,0.139898 1.476111,0.170919 0.497173,0.03102 0.963296,-0.03113 1.367301,-0.06219 0.404005,-0.03106 0.745831,-0.03106 1.103058,-0.248581 0.357228,-0.21752 0.730131,-0.652572 1.056411,-1.149745 0.32628,-0.497173 0.605954,-1.056521 0.82349,-1.677996 0.217536,-0.621475 0.372909,-1.305117 0.450621,-2.035367 0.07771,-0.730251 0.07771,-1.507131 0.03112,-2.237397 -0.04659,-0.730265 -0.139819,-1.413916 -0.295154,-2.019881 -0.155334,-0.605964 -0.372862,-1.134245 -0.621423,-1.584854 -0.24856,-0.45061 -0.528235,-0.823512 -0.792375,-1.165351 -0.26414,-0.341838 -0.51274,-0.652588 -0.87009,-0.823649 -0.357349,-0.17106 -0.823471,-0.202149 -1.258565,-0.186644 -0.435093,0.01551 -0.839071,0.07766 -1.305203,0.139812 -0.466131,0.06216 -0.994407,0.124307 -1.460507,0.108817 -0.466099,-0.01549 -0.87007,-0.108715 -1.274058,-0.201942 -0.403987,-0.09323 -0.807961,-0.18645 -1.180878,-0.357294 -0.372916,-0.170844 -0.71474,-0.419443 -1.103182,-0.66807 -0.388442,-0.248627 -0.823491,-0.497226 -1.274091,-0.730311 -0.450599,-0.233084 -0.916723,-0.450608 -1.460556,-0.761342 -0.543833,-0.310733 -1.165334,-0.714711 -1.662542,-0.994426 -0.497207,-0.279716 -0.870105,-0.435088 -1.056721,-0.512844 -0.186615,-0.07776 -0.186615,-0.07772 -0.543863,-0.04665 z m 4.017717,-1.443787 c -0.01443,0.0016 -0.08587,0.0097 -0.299624,0.03938 -0.213754,0.02963 -0.782921,0.115694 -1.22343,0.232999 -0.440508,0.117305 -0.772093,0.246503 -1.037276,0.404358 -0.265182,0.157854 -0.489329,0.346441 -0.713432,0.541342 -0.224103,0.194901 -0.446883,0.395154 -0.594315,0.619671 -0.147431,0.224517 -0.251933,0.534025 -0.361927,0.79843 -0.109994,0.264405 -0.224443,0.493303 -0.36159,0.755138 -0.137146,0.261836 -0.298455,0.556201 -0.411982,0.81634 -0.1135261,0.26014 -0.1905792,0.491138 -0.3056024,0.731851 -0.1150231,0.240712 -0.2803491,0.497566 -0.4218081,0.640628 -0.141459,0.143061 -0.262472,0.224693 -0.3531143,0.362536 -0.090642,0.137843 -0.1564901,0.458703 -0.235105,0.816561 -0.078615,0.357859 -0.1711783,0.752996 -0.2748644,1.020048 -0.1036861,0.267052 -0.1959343,0.431351 -0.3322947,0.63182 -0.1363604,0.200469 -0.3248046,0.432258 -0.5333369,0.636396 -0.2085323,0.204138 -0.4449684,0.388032 -0.7803485,0.625831 -0.3353802,0.237799 -0.7764127,0.522096 -1.3268924,0.862353 -0.5504796,0.340256 -1.2130319,0.732627 -1.6710195,0.992704 -0.4579876,0.260076 -0.7080802,0.396136 -0.7935244,0.501178 -0.085444,0.105043 -0.098045,0.215898 -0.027114,0.346319 0.070931,0.130421 0.3514009,0.327246 0.6803202,0.484641 0.3289193,0.157395 0.7460755,0.279895 1.1406432,0.461143 0.3945677,0.181249 0.7985568,0.443953 1.1566931,0.687889 0.3581362,0.243936 0.6705885,0.466669 1.0106907,0.760636 0.3401021,0.293968 0.7060437,0.675899 0.9792967,1.051745 0.273253,0.375845 0.4781168,0.756632 0.6600811,1.110938 0.1819642,0.354305 0.3421544,0.68144 0.518682,1.027846 0.1765277,0.346405 0.3704334,0.712384 0.5460517,1.116819 0.1756182,0.404434 0.3321563,0.858301 0.4754625,1.261429 0.143307,0.403129 0.272573,0.756171 0.42544,1.102223 0.152866,0.346052 0.330167,0.685616 0.554486,0.986773 0.224319,0.301156 0.514717,0.583746 0.78785,0.800581 0.273134,0.216835 0.52462,0.378082 0.85797,0.532487 0.333349,0.154405 0.772863,0.28929 1.241976,0.378668 0.469112,0.08938 0.977055,0.129243 1.524351,0.08575 0.547295,-0.04349 1.16493,-0.192647 1.61487,-0.384351 0.44994,-0.191704 0.778793,-0.401773 1.043536,-0.614612 0.264744,-0.212839 0.473609,-0.421707 0.674003,-0.693503 0.200395,-0.271797 0.388511,-0.629146 0.549152,-1.034862 0.160642,-0.405716 0.29161,-0.877917 0.435414,-1.278397 0.143805,-0.40048 0.295736,-0.741358 0.441759,-1.012931 0.146023,-0.271573 0.277487,-0.477776 0.406572,-0.637888 0.129086,-0.160111 0.261467,-0.292346 0.387691,-0.527078 0.126224,-0.234733 0.223713,-0.685649 0.316168,-1.018242 0.09246,-0.332592 0.169172,-0.556639 0.286761,-0.795606 0.11759,-0.238967 0.285879,-0.493349 0.497874,-0.734634 0.211995,-0.241285 0.484323,-0.477338 0.803694,-0.728629 0.31937,-0.251292 0.687936,-0.513936 1.120137,-0.774649 0.432201,-0.260714 0.942091,-0.517593 1.409385,-0.779063 0.467295,-0.26147 0.897765,-0.52757 1.176785,-0.768017 0.27902,-0.240446 0.434285,-0.426765 0.382568,-0.508881 -0.05172,-0.08212 -0.453846,-0.348445 -0.833678,-0.545531 -0.379833,-0.197086 -0.741348,-0.338832 -1.035081,-0.47524 -0.293733,-0.136409 -0.528495,-0.263437 -0.801442,-0.410524 -0.272946,-0.147086 -0.583903,-0.313971 -0.871334,-0.524341 -0.287432,-0.210371 -0.566382,-0.481852 -0.843734,-0.795813 -0.277352,-0.31396 -0.551218,-0.675486 -0.812169,-1.091156 -0.260951,-0.41567 -0.507363,-0.897358 -0.729252,-1.385484 -0.22189,-0.488127 -0.420834,-0.985402 -0.65522,-1.522557 -0.234387,-0.537154 -0.508052,-1.11495 -0.777469,-1.651128 -0.269418,-0.536179 -0.532723,-1.031099 -0.856851,-1.493461 -0.324127,-0.462361 -0.722611,-0.902924 -1.160865,-1.202842 -0.438254,-0.299918 -0.976898,-0.505283 -1.405511,-0.620405 -0.428612,-0.115121 -0.850951,-0.167748 -1.050837,-0.192507 -0.199887,-0.02476 -0.199887,-0.02476 -0.199887,-0.02476 0,0 0,-2e-6 -0.01443,0.0016 z"
       sodipodi:nodetypes="cccccccccccccccccccccccccccccccccccccccccccccccccccccccccccccccccccccccccccccccccccccccccccccccccccccccccccccccccccccccssscsssssscssccsccscsccsssssccsscccsssscssssssccscccssscsscsczc" /><text
       xml:space="preserve"
       transform="matrix(0.24077188,0,0,0.26467667,-23.718701,-56.699835)"
       id="text"
       style="font-style:normal;font-variant:normal;font-weight:normal;font-stretch:normal;font-size:37.3333px;line-height:0.7;font-family:Calibri;-inkscape-font-specification:'Calibri, Normal';font-variant-ligatures:normal;font-variant-caps:normal;font-variant-numeric:normal;font-variant-east-asian:normal;writing-mode:lr-tb;white-space:pre;shape-inside:url(#rect19916);shape-padding:58.5623;display:inline;opacity:0.99;fill:#ffffff;fill-opacity:1;fill-rule:nonzero;stroke:url(#linearGradient18359);stroke-width:0.234331;stroke-linecap:round;stroke-linejoin:miter;stroke-dasharray:none;stroke-dashoffset:0;stroke-opacity:1;paint-order:markers stroke fill;filter:url(#filter24599)"
       x="191.1763"
       y="0"><tspan
         x="223.0332"
         y="390.22762"
         id="tspan24432"><tspan
           style="font-weight:bold;-inkscape-font-specification:'Calibri Bold';opacity:0.95;fill-rule:evenodd"
           id="tspan24430">DM BON
</tspan></tspan><tspan
         x="223.0332"
         y="416.36092"
         id="tspan24436"><tspan
           style="font-weight:300;font-size:19.5645px;-inkscape-font-specification:'Calibri Light';letter-spacing:-0.0943288px"
           id="tspan24434">Data Management 
</tspan></tspan><tspan
         x="223.0332"
         y="442.49422"
         id="tspan24440"><tspan
           dx="0 0 0 0 0 0 0 0 0 0 0 0 0 0 0 0 0 0 0 0 0 0.094328798 -0.094331823"
           style="font-weight:300;font-size:19.5645px;-inkscape-font-specification:'Calibri Light';letter-spacing:-0.0943288px"
           id="tspan24438">Biodiversity Observation Networks</tspan></tspan></text></g></svg>
