<?xml version="1.0" encoding="UTF-8" standalone="no"?>
<!-- Created with Inkscape (http://www.inkscape.org/) -->

<svg
   width="120"
   height="120"
   viewBox="0 0 31.749999 31.749999"
   version="1.1"
   id="dmbon-svg-logo"
   xml:space="preserve"
   inkscape:version="1.1.2 (0a00cf5339, 2022-02-04)"
   sodipodi:docname="dmbon-logo-pure-120x120.svg"
   xmlns:inkscape="http://www.inkscape.org/namespaces/inkscape"
   xmlns:sodipodi="http://sodipodi.sourceforge.net/DTD/sodipodi-0.dtd"
   xmlns="http://www.w3.org/2000/svg"
   xmlns:svg="http://www.w3.org/2000/svg"><sodipodi:namedview
     id="namedview7"
     pagecolor="#ffffff"
     bordercolor="#000000"
     borderopacity="0.25"
     inkscape:showpageshadow="2"
     inkscape:pageopacity="0.0"
     inkscape:pagecheckerboard="0"
     inkscape:deskcolor="#d1d1d1"
     inkscape:document-units="px"
     showgrid="false"
     inkscape:zoom="2.8284271"
     inkscape:cx="45.961941"
     inkscape:cy="35.532116"
     inkscape:window-width="1920"
     inkscape:window-height="1016"
     inkscape:window-x="0"
     inkscape:window-y="0"
     inkscape:window-maximized="1"
     inkscape:current-layer="base"
     inkscape:pageshadow="2"
     fit-margin-top="0"
     fit-margin-left="0"
     fit-margin-right="0"
     fit-margin-bottom="0"
     units="px" /><defs
     id="defs2" /><g
     inkscape:label="Base"
     inkscape:groupmode="layer"
     id="base"
     transform="translate(1.477303,2.2381586)"><rect
       style="opacity:1;fill:#354d90;fill-opacity:1;fill-rule:nonzero;stroke:#eef9f9;stroke-width:0.158807;stroke-linecap:round;stroke-linejoin:miter;stroke-dasharray:none;stroke-dashoffset:0;stroke-opacity:1;paint-order:markers stroke fill"
       id="back"
       width="31.591192"
       height="31.591192"
       x="-1.3978992"
       y="-2.1587546" /><path
       id="logo"
       style="fill:#31b7bc;fill-opacity:0;fill-rule:nonzero;stroke:#31b7bc;stroke-width:1.07082;stroke-linecap:round;stroke-linejoin:miter;stroke-dasharray:none;stroke-dashoffset:0;stroke-opacity:1;paint-order:markers stroke fill"
       inkscape:path-effect="#path-effect8590"
       inkscape:original-d="m 20.567129,20.126372 c 0.52847,0.462439 1.056672,0.924616 1.584608,1.386522 0.110311,0.374424 0.22035,0.748556 0.330126,1.122436 M 5.5997612,22.004362 c 0.4718359,-0.133842 0.9433995,-0.267947 1.414703,-0.402223 0.1889203,-0.343238 0.3775704,-0.686677 0.5659583,-1.030328 -0.024754,-0.184863 -0.04973,-0.369937 -0.075008,-0.555214 M 6.1545222,4.6914917 C 6.5109333,5.2595614 6.8670912,5.827389 7.222992,6.3949948 7.5165594,6.849509 7.8098565,7.3037509 8.1029086,7.7577912 M 20.765204,6.9213004 C 21.249657,6.4593953 21.733844,5.9972079 22.217763,5.5347685 22.3941,5.2489237 22.570164,4.9628169 22.745965,4.6764377 M 19.029257,2.7404394 c -0.621245,0.1867182 -1.242757,0.3731741 -1.864535,0.5593579 -0.341571,0.1556522 -0.683396,0.3110221 -1.025493,0.4661399 -0.403724,0.2799462 -0.8077,0.5596201 -1.211948,0.8390419 -0.621259,0.2799461 -1.242757,0.55962 -1.864536,0.8390317 -0.279421,0.3110322 -0.559096,0.6217821 -0.839042,0.9322699 -0.496952,0.1867282 -0.994151,0.3731741 -1.491629,0.5593578 -0.310492,0.09347 -0.621244,0.1867282 -0.9322664,0.279684 -0.4969541,0.031358 -0.9941509,0.062414 -1.491629,0.093268 C 7.9355308,7.215625 7.5626299,7.1224071 7.1894568,7.0289068 6.599276,6.9980527 6.0088522,6.9669968 5.4181481,6.9356385 5.1387294,7.0602148 4.8590555,7.1845187 4.5791083,7.3085505 4.2064605,7.7438867 3.8335597,8.1789305 3.4603865,8.6137222 3.2741947,9.0490584 3.0877468,9.4841123 2.9010267,9.9189041 2.6837599,10.540687 2.4662349,11.162187 2.2484378,11.783434 c -0.030804,0.715021 -0.06188,1.429748 -0.093228,2.144214 0.031348,0.528564 0.062424,1.056836 0.093228,1.584856 0.2178002,0.746096 0.4353251,1.4919 0.6525889,2.237441 0.2488751,0.311032 0.497475,0.621782 0.7458128,0.93227 0.4353332,0.311032 0.870384,0.621782 1.3051757,0.93227 0.3110292,0.155642 0.6217781,0.311022 0.9322658,0.46613 0.7460962,2.72e-4 1.4918959,2.72e-4 2.2374446,0 0.5596372,2.72e-4 1.118986,2.72e-4 1.678082,0 0.5285634,0.155652 1.0568374,0.311022 1.5848554,0.46614 0.497486,0.342108 0.994685,0.683924 1.491629,1.025498 0.497485,0.24887 0.994685,0.497468 1.491629,0.745803 0.373181,0.279957 0.74608,0.55963 1.11872,0.839052 0.497487,0.217794 0.994685,0.435316 1.491628,0.652586 0.683943,0.217794 1.367594,0.435326 2.050988,0.652586 0.497488,-0.124042 0.994688,-0.248336 1.491628,-0.372912 0.559641,-0.310498 1.118989,-0.621248 1.678083,-0.93226 0.373181,-0.37265 0.746082,-0.745551 1.118722,-1.118726 0.311029,-0.559105 0.621778,-1.118453 0.932266,-1.678083 0.186726,-0.37265 0.373176,-0.745542 0.559363,-1.118726 -0.06188,-0.37264 -0.124037,-0.745542 -0.186453,-1.118716 -0.341574,-0.248346 -0.683398,-0.496944 -1.025496,-0.745814 -0.279419,-0.372649 -0.559093,-0.745551 -0.83904,-1.118725 -0.155115,-0.310488 -0.310491,-0.621238 -0.466136,-0.93226 -0.186189,-0.37265 -0.37264,-0.745552 -0.55936,-1.118726 0.06242,-0.341574 0.124568,-0.68339 0.186454,-1.025498 0.0935,-0.279412 0.18672,-0.559096 0.27968,-0.839042 0.217799,-0.372639 0.435325,-0.745541 0.652589,-1.118715 0.2178,-0.310498 0.435325,-0.621248 0.652586,-0.93227 0.311029,-0.4348029 0.621779,-0.8698467 0.932269,-1.3051728 0.124571,-0.2483459 0.24887,-0.4969437 0.372907,-0.7458139 C 24.654204,7.7127905 24.498828,7.1845187 24.343186,6.6559646 24.094842,6.3143908 23.846242,5.9725649 23.59737,5.6304668 23.380103,5.351045 23.162578,5.0713711 22.944783,4.791425 22.727517,4.5430892 22.509991,4.2944813 22.292194,4.0456111 22.012776,3.9215794 21.733101,3.7972754 21.453154,3.6727092 21.080508,3.5486674 20.707606,3.4243634 20.334433,3.2997973 19.899633,3.1136035 19.464583,2.9271576 19.029257,2.7404394 Z m -8.25404,0.186456 C 10.060746,2.9893095 9.346007,3.0514615 8.6310019,3.1133514 7.9786691,3.4243735 7.3260934,3.7351234 6.6732403,4.0456111 6.3627445,4.3877193 6.0519956,4.7295452 5.7409715,5.0711089 5.3994007,5.4442932 5.0575768,5.817185 4.7154787,6.1898247 4.5914389,6.7183889 4.4671399,7.2466607 4.3425718,7.7746804 4.2806818,7.9614086 4.218535,8.1478545 4.1561158,8.3340483 c 0.0935,0.2799461 0.1867232,0.55962 0.279683,0.8390318 0.3110261,0.40426 0.621778,0.808238 0.9322658,1.2119549 0.3421072,0.342108 0.683931,0.683934 1.0254958,1.025498 0.1867221,0.466402 0.3731731,0.932532 0.5593598,1.398399 0.062414,0.435336 0.1245702,0.87038 0.186453,1.305172 -0.2794188,0.652868 -0.5590927,1.305444 -0.8390398,1.957768 -0.4347998,0.466402 -0.8698496,0.932532 -1.3051748,1.398399 -0.3104957,0.342109 -0.6212456,0.683924 -0.9322698,1.025498 2.672e-4,0.217794 2.672e-4,0.435316 0,0.652586 0.062424,0.466402 0.1245712,0.932532 0.186456,1.3984 0.2488752,0.40426 0.4974751,0.808228 0.7458138,1.211943 0.4664102,0.373185 0.9325351,0.746087 1.3984018,1.118726 0.3110292,0.279956 0.621778,0.55963 0.9322658,0.839042 0.5907151,0.217794 1.1811409,0.435326 1.7713086,0.652586 0.5285628,2.62e-4 1.0568372,2.62e-4 1.5848562,0 0.435336,-0.09297 0.870384,-0.186184 1.305175,-0.279684 0.528563,-0.341564 1.056837,-0.6834 1.584855,-1.025488 0.528562,-0.310498 1.056837,-0.621247 1.584856,-0.93227 0.559639,-0.372649 1.118989,-0.745551 1.678082,-1.118725 0.311029,-0.21727 0.621778,-0.434792 0.932268,-0.652586 0.435334,-0.06191 0.870381,-0.124032 1.305173,-0.186456 0.373181,-0.09297 0.746082,-0.186184 1.118722,-0.279674 0.528563,0.124566 1.056837,0.24887 1.584856,0.372902 0.46641,-0.06191 0.932536,-0.124032 1.398401,-0.186456 0.342105,2.72e-4 0.683931,2.72e-4 1.025493,0 0.373182,-0.434792 0.746083,-0.869846 1.118723,-1.305172 0.279952,-0.559106 0.559626,-1.118454 0.839042,-1.678084 0.155648,-0.683409 0.311021,-1.367051 0.466134,-2.050985 2.66e-4,-0.776638 2.66e-4,-1.553518 0,-2.33067 -0.09297,-0.683409 -0.186187,-1.367061 -0.27968,-2.050985 C 26.126824,10.136689 25.909299,9.6084061 25.691501,9.0798622 25.412083,8.7072123 25.132408,8.3343105 24.852462,7.9611363 24.604118,7.6506385 24.355518,7.3398886 24.106646,7.0288665 c -0.465875,-0.030854 -0.931999,-0.06191 -1.3984,-0.093268 -0.403724,0.062414 -0.8077,0.1245762 -1.211948,0.186456 -0.528029,0.062414 -1.056304,0.1245661 -1.584855,0.186456 C 19.507717,7.2155443 19.103744,7.1223264 18.699493,7.0288262 18.295772,6.9358603 17.891796,6.8426424 17.487545,6.7491523 17.145975,6.5008065 16.804151,6.2522086 16.462052,6.0033384 16.027252,5.7549926 15.592202,5.5063947 15.156877,5.2575246 14.690999,5.0402548 14.224874,4.8227329 13.758474,4.6049387 13.13722,4.2012129 12.515718,3.7972351 11.89394,3.3929849 11.521292,3.2378671 11.148393,3.0824972 10.775217,2.9268551 Z m 3.674902,-1.4143612 c -0.02883,0.00357 -0.100337,0.011091 -0.243334,0.027628 -0.285996,0.032972 -0.85819,0.099016 -1.309415,0.1980011 -0.451224,0.099016 -0.781582,0.2313659 -1.045761,0.4074666 C 11.587431,2.3217306 11.389648,2.5416522 11.158604,2.728693 10.927559,2.9157338 10.663482,3.070045 10.509367,3.3122805 10.355251,3.554516 10.31135,3.8844842 10.223307,4.1595199 10.135267,4.4345451 10.003249,4.6546583 9.8491876,4.9077533 9.6951276,5.1608482 9.5189326,5.4470559 9.408895,5.7112221 9.2988576,5.9753882 9.2547058,6.2173615 9.1556609,6.470396 9.056615,6.7234405 8.9026799,6.9876268 8.7377735,7.1196342 8.572868,7.2516417 8.3966605,7.2514501 8.2974814,7.4166409 8.1983044,7.5818317 8.176399,7.9117092 8.1213636,8.2748204 8.0663303,8.6379316 7.9781075,9.0340851 7.8790727,9.3091207 7.7800368,9.5841461 7.6698925,9.7383971 7.5268381,9.9364691 7.3837836,10.134541 7.208053,10.376666 6.9990079,10.585708 6.7899628,10.79475 6.5476064,10.971032 6.2064802,11.202116 c -0.3411261,0.231093 -0.7810894,0.517049 -1.3312989,0.858179 -0.5502105,0.34114 -1.2104393,0.737435 -1.6725924,0.99053 -0.4621532,0.253095 -0.7265018,0.36295 -0.869644,0.473117 -0.1431411,0.110178 -0.164981,0.219983 -0.04377,0.385062 0.1212135,0.16509 0.3851558,0.385466 0.7372956,0.517413 0.3521389,0.131947 0.7923139,0.17606 1.199472,0.352231 0.4071581,0.176182 0.7816682,0.484219 1.1338192,0.737294 0.3521509,0.253075 0.6821836,0.451146 1.0342983,0.737304 0.3521136,0.286147 0.7264271,0.660057 1.0014709,1.04523 0.2750427,0.385183 0.4508187,0.781619 0.6158885,1.144771 0.1650698,0.363141 0.3193699,0.69316 0.5064672,1.03429 0.1870973,0.34113 0.4070451,0.693311 0.5830621,1.100475 0.176018,0.407164 0.3082261,0.869422 0.4402929,1.276586 0.132067,0.407165 0.26388,0.759275 0.406945,1.111416 0.1430654,0.352141 0.2971874,0.703808 0.5283524,1.011896 0.231165,0.308078 0.539296,0.572445 0.814412,0.792518 0.275116,0.220083 0.517039,0.396245 0.858181,0.550243 0.341141,0.153999 0.781526,0.286047 1.254704,0.385062 0.473178,0.09902 0.979076,0.164939 1.540243,0.120886 0.561167,-0.04406 1.177661,-0.197941 1.639766,-0.396002 0.462104,-0.198072 0.770204,-0.44063 1.034297,-0.660703 0.264094,-0.220083 0.483957,-0.417953 0.693004,-0.693009 0.209049,-0.275056 0.407175,-0.627136 0.550237,-1.04524 0.14306,-0.418104 0.231132,-0.902202 0.363176,-1.309417 0.132045,-0.407214 0.30818,-0.737304 0.451235,-1.01241 0.143054,-0.275096 0.252779,-0.495159 0.406945,-0.638298 0.154166,-0.143129 0.352685,-0.209153 0.473641,-0.473117 0.120955,-0.263955 0.16482,-0.726465 0.230828,-1.067645 0.06601,-0.341181 0.154067,-0.561345 0.275119,-0.803469 0.121051,-0.242125 0.274871,-0.506079 0.495003,-0.748234 0.220133,-0.242155 0.506234,-0.462318 0.825354,-0.715413 0.319121,-0.253095 0.671189,-0.53889 1.111413,-0.792005 0.440226,-0.253115 0.968618,-0.473268 1.441764,-0.726353 0.473146,-0.253095 0.891279,-0.539152 1.210415,-0.748234 0.319135,-0.209093 0.539213,-0.341402 0.440292,-0.528353 -0.09893,-0.18696 -0.517257,-0.428832 -0.913411,-0.604953 C 25.277001,12.687653 24.903156,12.577355 24.606032,12.445357 24.308909,12.31337 24.088604,12.159623 23.813505,12.016525 23.538406,11.873436 23.208704,11.741479 22.911556,11.532467 22.614407,11.323455 22.349857,11.037177 22.074739,10.718058 21.799622,10.398939 21.513527,10.046677 21.249385,9.6285221 20.985243,9.2103773 20.743601,8.7262492 20.534496,8.2310498 20.325389,7.7358606 20.149154,7.2294993 19.918086,6.6902874 19.687016,6.1510755 19.400607,5.5793154 19.1365,5.0401035 18.872394,4.5008916 18.630689,3.9944799 18.32261,3.5102812 18.01453,3.0260724 17.639987,2.5638547 17.177848,2.2446351 16.715709,1.9254154 16.165777,1.7496576 15.648547,1.6615719 c -0.376345,-0.046663 -0.798683,-0.099289 -1.198421,-0.149331 2.62e-4,3.623e-4 2.58e-4,5.228e-4 -7e-6,2.933e-4 z"
       d="m 20.567129,20.126372 c 0.528485,0.462421 1.056689,0.924596 1.375718,1.342796 0.319029,0.418201 0.429067,0.792333 0.539016,1.166162 M 5.5997612,22.004362 c 0.4717547,-0.134128 0.9433267,-0.268203 1.2733291,-0.506912 0.3300023,-0.238709 0.5186529,-0.582148 0.6005073,-0.84631 0.081854,-0.264163 0.056852,-0.449233 0.031817,-0.634543 M 6.1545222,4.6914917 c 0.3563344,0.5681178 0.7124883,1.1359479 1.037227,1.6470057 0.3247387,0.5110577 0.618031,0.9653027 0.9111594,1.4192938 M 20.765204,6.9213004 c 0.48419,-0.4621807 0.968382,-0.9243632 1.298482,-1.2984666 0.3301,-0.3741034 0.506165,-0.6602096 0.682279,-0.9463961 M 18.936277,2.9269353 c -0.52836,-9.47e-5 -1.149873,0.1863583 -1.631573,0.3572744 -0.4817,0.1709162 -0.823522,0.3262922 -1.196465,0.5438327 -0.372942,0.2175404 -0.776917,0.4972158 -1.289639,0.7768901 -0.512721,0.2796744 -1.13422,0.5593459 -1.584888,0.854602 -0.450668,0.2952561 -0.730343,0.6060062 -1.118713,0.8545771 -0.38837,0.248571 -0.885568,0.4350192 -1.289537,0.5748608 C 10.421494,7.028814 10.110733,7.1220435 9.7067844,7.1842202 9.3028358,7.246397 8.805641,7.2774854 8.3706091,7.2464622 7.9355773,7.2154391 7.5626784,7.1222133 7.080983,7.0600224 6.5992877,6.9978314 6.0088656,6.9667427 5.5737254,7.0133166 5.1385852,7.0598905 4.8589104,7.1841922 4.5325417,7.4639163 4.2061731,7.7436403 3.8332752,8.1786866 3.5535746,8.6138038 3.273874,9.048921 3.087424,9.483974 2.8854323,10.012275 c -0.2019917,0.5283 -0.4195177,1.1498 -0.5438,1.817984 -0.1242823,0.668184 -0.1553578,1.382911 -0.1553435,2.004439 1.43e-5,0.621529 0.03109,1.149801 0.1554326,1.786877 0.1243431,0.637076 0.3418698,1.382879 0.5750097,1.911153 0.2331399,0.528274 0.4817392,0.839024 0.8236091,1.149745 0.3418699,0.310722 0.7769202,0.621472 1.1498379,0.854512 0.3729176,0.233039 0.6836692,0.388414 1.2119341,0.466022 0.528265,0.07761 1.2740647,0.07761 1.9266577,0.07761 0.6525929,0 1.2119417,0 1.7557971,0.07774 0.543855,0.07774 1.072128,0.233115 1.584875,0.481784 0.512747,0.248668 1.009941,0.59049 1.507165,0.885686 0.497223,0.295195 0.994423,0.543791 1.429475,0.807969 0.435052,0.264178 0.807949,0.543854 1.243024,0.792422 0.435075,0.248567 0.932272,0.466091 1.522715,0.683602 0.590442,0.217512 1.274095,0.435038 1.86447,0.481574 0.590376,0.04654 1.087574,-0.07776 1.615817,-0.2953 0.528244,-0.217534 1.087593,-0.528281 1.553684,-0.87009 0.466091,-0.341808 0.838991,-0.71471 1.1808,-1.180805 0.341809,-0.466095 0.652558,-1.025443 0.901163,-1.491575 0.248606,-0.466131 0.435053,-0.839025 0.497258,-1.211838 0.0622,-0.372812 5.5e-5,-0.745715 -0.201816,-1.056516 -0.201871,-0.310801 -0.543695,-0.5594 -0.854492,-0.87012 -0.310797,-0.31072 -0.590471,-0.683621 -0.808033,-1.025443 -0.217562,-0.341821 -0.372939,-0.65257 -0.543857,-0.994406 -0.170918,-0.341835 -0.357368,-0.714737 -0.419617,-1.072166 -0.06225,-0.357429 -1.01e-4,-0.699245 0.07758,-1.010031 0.07768,-0.310787 0.170909,-0.590469 0.32629,-0.9168 0.155381,-0.326332 0.372909,-0.699233 0.590447,-1.041083 0.217537,-0.341851 0.435062,-0.652601 0.699208,-1.025514 C 23.814871,9.8567891 24.125619,9.4217436 24.343142,9.0799364 24.560665,8.7381291 24.684964,8.4895313 24.669497,8.1011863 24.654031,7.7128413 24.498657,7.1845688 24.296726,6.7494972 24.094794,6.3144256 23.846194,5.9725999 23.61313,5.6618372 23.380065,5.3510744 23.162541,5.0713999 22.945021,4.8072516 22.727501,4.5431033 22.509971,4.2944986 22.261402,4.1079753 22.012833,3.9214521 21.733156,3.7971527 21.406858,3.6728312 21.080561,3.5485098 20.707658,3.4242073 20.303672,3.2688429 19.899687,3.1134785 19.464638,2.92703 18.936277,2.9269353 Z m -8.518308,0.031026 C 10.060721,2.9890263 9.3459824,3.0511783 8.66225,3.237617 7.9785177,3.4240556 7.3259412,3.7348037 6.8442029,4.0611343 6.3624647,4.387465 6.0517151,4.7292902 5.7254177,5.0866632 5.3991204,5.4440362 5.0572993,5.8169307 4.8242137,6.2676232 4.591128,6.7183157 4.4668288,7.2465875 4.3735966,7.6039451 c -0.093232,0.3573577 -0.1553807,0.543803 -0.139763,0.7769536 0.015618,0.2331505 0.108844,0.5128234 0.310899,0.8546467 0.2020551,0.3418233 0.5128057,0.7458023 0.8391225,1.1186996 0.3263167,0.372898 0.6681413,0.714723 0.9322148,1.118734 0.2640736,0.404012 0.4505255,0.870141 0.5747855,1.320731 0.1242601,0.450589 0.1864093,0.885634 0.077593,1.429379 -0.1088159,0.543745 -0.3884901,1.196321 -0.7458388,1.755626 -0.3573487,0.559305 -0.7924015,1.025432 -1.1653145,1.429421 -0.372913,0.403989 -0.6836578,0.745809 -0.8390322,1.025618 -0.1553745,0.279809 -0.1553745,0.497331 -0.1242785,0.839182 0.031096,0.341852 0.093247,0.807981 0.2487054,1.243052 0.1554581,0.435071 0.4040556,0.839041 0.7614806,1.227451 0.357425,0.38841 0.8235502,0.761312 1.2119916,1.087619 0.3884415,0.326306 0.6991899,0.605981 1.1498108,0.85452 0.4506208,0.248539 1.041049,0.466065 1.6003867,0.574769 0.5593377,0.108705 1.0876121,0.108705 1.5692571,0.06207 0.481645,-0.04664 0.916691,-0.139862 1.3983,-0.357393 0.481609,-0.217532 1.009889,-0.559358 1.538186,-0.885656 0.528296,-0.326297 1.05657,-0.637047 1.600389,-0.97888 0.543819,-0.341833 1.103169,-0.714734 1.538227,-1.009954 0.435058,-0.295219 0.745806,-0.512742 1.118804,-0.65258 0.372999,-0.139839 0.808042,-0.201989 1.212012,-0.279686 0.40397,-0.0777 0.776869,-0.17092 1.227532,-0.15532 0.450663,0.0156 0.978938,0.139898 1.476111,0.170919 0.497173,0.03102 0.963296,-0.03113 1.367301,-0.06219 0.404005,-0.03106 0.745831,-0.03106 1.103058,-0.248581 0.357228,-0.21752 0.730131,-0.652572 1.056411,-1.149745 0.32628,-0.497173 0.605954,-1.056521 0.82349,-1.677996 0.217536,-0.621475 0.372909,-1.305117 0.450621,-2.035367 0.07771,-0.730251 0.07771,-1.507131 0.03112,-2.237397 -0.04659,-0.730265 -0.139819,-1.413916 -0.295154,-2.019881 C 26.126689,10.136745 25.909161,9.608463 25.6606,9.1578539 25.41204,8.7072448 25.132365,8.3343427 24.868225,7.9925039 24.604085,7.650665 24.355485,7.3399151 23.998135,7.1688552 23.640785,6.9977954 23.174664,6.9667068 22.73957,6.9822122 22.304477,6.9977177 21.900499,7.0598689 21.434367,7.1220246 20.968235,7.1841804 20.43996,7.2463312 19.973861,7.2308416 19.507761,7.215352 19.10379,7.1221267 18.699803,7.0288993 18.295815,6.935672 17.891841,6.8424491 17.518924,6.6716053 17.146008,6.5007614 16.804185,6.2521624 16.415742,6.0035356 16.0273,5.7549088 15.592251,5.5063094 15.141652,5.273225 14.691052,5.0401405 14.224928,4.8226166 13.681095,4.5118826 13.137262,4.2011486 12.51576,3.7971702 12.018553,3.5174545 11.521345,3.2377388 11.148448,3.0823662 10.961832,3.0046107 10.775217,2.9268551 10.775217,2.9268954 10.417969,2.9579608 Z m 4.017718,-1.443788 c -0.01443,0.00164 -0.08587,0.00975 -0.299625,0.039378 -0.213754,0.029628 -0.782921,0.1156937 -1.223429,0.2329986 -0.440508,0.1173049 -0.772094,0.2465029 -1.037276,0.4043579 -0.265183,0.1578549 -0.489329,0.3464418 -0.713433,0.5413425 -0.224103,0.1949008 -0.446883,0.3951541 -0.594315,0.619671 C 10.420178,3.5764377 10.315676,3.8859449 10.205682,4.1503502 10.095688,4.4147556 9.9812387,4.6436531 9.844092,4.9054886 9.7069454,5.1673242 9.5456364,5.4616893 9.43211,5.7218287 9.3185835,5.9819681 9.2415304,6.2129666 9.1265073,6.4536792 9.0114842,6.6943917 8.8461579,6.951246 8.704699,7.0943074 8.56324,7.2373688 8.4422274,7.3189999 8.3515849,7.4568432 8.2609424,7.5946864 8.1950948,7.915546 8.1164798,8.2734047 8.0378647,8.6312634 7.9453016,9.0264001 7.8416155,9.2934522 7.7379295,9.5605043 7.6456812,9.7248033 7.5093206,9.9252724 7.37296,10.125741 7.1845159,10.35753 6.9759837,10.561669 6.7674515,10.765807 6.5310154,10.949701 6.1956353,11.1875 5.8602551,11.425299 5.4192226,11.709596 4.8687429,12.049853 4.3182633,12.390109 3.655711,12.78248 3.1977234,13.042557 2.7397358,13.302633 2.4896432,13.438693 2.404199,13.543735 c -0.085444,0.105043 -0.098045,0.215898 -0.027114,0.346319 0.070931,0.130421 0.3514009,0.327246 0.6803202,0.484641 0.3289193,0.157395 0.7460755,0.279895 1.1406432,0.461143 0.3945677,0.181249 0.7985568,0.443953 1.1566931,0.687889 0.3581362,0.243936 0.6705885,0.466669 1.0106907,0.760636 0.3401021,0.293968 0.7060437,0.675899 0.9792967,1.051745 0.273253,0.375845 0.4781168,0.756632 0.6600811,1.110938 0.1819642,0.354305 0.3421544,0.68144 0.518682,1.027846 0.1765277,0.346405 0.3704334,0.712384 0.5460517,1.116819 0.1756182,0.404434 0.3321563,0.858301 0.4754628,1.261429 0.1433065,0.403129 0.272573,0.756171 0.4254396,1.102223 0.1528665,0.346052 0.3301675,0.685616 0.5544865,0.986773 0.224319,0.301156 0.514717,0.583746 0.78785,0.800581 0.273134,0.216835 0.52462,0.378082 0.85797,0.532487 0.333349,0.154405 0.772863,0.28929 1.241976,0.378668 0.469112,0.08938 0.977055,0.129243 1.524351,0.08575 0.547295,-0.04349 1.16493,-0.192647 1.61487,-0.384351 0.44994,-0.191704 0.778793,-0.401773 1.043536,-0.614612 0.264744,-0.212839 0.473609,-0.421707 0.674003,-0.693503 0.200395,-0.271797 0.388511,-0.629146 0.549152,-1.034862 0.160642,-0.405716 0.29161,-0.877917 0.435414,-1.278397 0.143805,-0.40048 0.295736,-0.741358 0.441759,-1.012931 0.146023,-0.271573 0.277487,-0.477776 0.406572,-0.637888 0.129086,-0.160111 0.261467,-0.292346 0.387691,-0.527078 0.126224,-0.234733 0.223713,-0.685649 0.316168,-1.018242 0.09246,-0.332592 0.169172,-0.556639 0.286761,-0.795606 0.11759,-0.238967 0.285879,-0.493349 0.497874,-0.734634 0.211995,-0.241285 0.484323,-0.477338 0.803694,-0.728629 0.31937,-0.251292 0.687936,-0.513936 1.120137,-0.774649 0.432201,-0.260714 0.942091,-0.517593 1.409385,-0.779063 0.467295,-0.26147 0.897765,-0.52757 1.176785,-0.768017 0.27902,-0.240446 0.434285,-0.426765 0.382568,-0.508881 -0.05172,-0.08211 -0.453846,-0.348445 -0.833678,-0.545531 C 25.269938,12.705667 24.908423,12.563921 24.61469,12.427513 24.320957,12.291104 24.086195,12.164076 23.813248,12.016989 23.540302,11.869903 23.229345,11.703018 22.941914,11.492648 22.654482,11.282277 22.375532,11.010796 22.09818,10.696835 21.820828,10.382875 21.546962,10.021349 21.286011,9.6056788 21.02506,9.1900087 20.778648,8.7083206 20.556759,8.2201942 20.334869,7.7320679 20.135925,7.2347918 19.901538,6.6976378 19.667152,6.1604838 19.393487,5.5826876 19.12407,5.046509 18.854652,4.5103305 18.591347,4.0154105 18.26722,3.5530488 17.943092,3.0906871 17.544608,2.650124 17.106354,2.3502059 16.6681,2.0502879 16.129456,1.8449238 15.700843,1.7298021 15.27223,1.6146804 14.849892,1.5620544 14.650006,1.5372943 c -0.199887,-0.02476 -0.199887,-0.02476 -0.214319,-0.023121 z"
       sodipodi:nodetypes="cccccccccccccccccccccccccccccccccccccccccccccccccccccccccccccccccccccccccccccccccccccccccccccccccccccccccccccccccccccccssscsssssscssccsccscsccsssssccsscccsssscssssssccscccssscsscsczc" /></g></svg>
