<?xml version="1.0" encoding="UTF-8" standalone="no"?>
<!-- Created with Inkscape (http://www.inkscape.org/) -->

<svg
   width="400"
   height="120"
   viewBox="0 0 105.83333 31.749999"
   version="1.1"
   id="dmbon-svg-logo"
   xml:space="preserve"
   inkscape:version="1.1.2 (0a00cf5339, 2022-02-04)"
   sodipodi:docname="dmbon-logo-text-400x200.svg"
   xmlns:inkscape="http://www.inkscape.org/namespaces/inkscape"
   xmlns:sodipodi="http://sodipodi.sourceforge.net/DTD/sodipodi-0.dtd"
   xmlns:xlink="http://www.w3.org/1999/xlink"
   xmlns="http://www.w3.org/2000/svg"
   xmlns:svg="http://www.w3.org/2000/svg"><sodipodi:namedview
     id="namedview7"
     pagecolor="#ffffff"
     bordercolor="#000000"
     borderopacity="0.25"
     inkscape:showpageshadow="2"
     inkscape:pageopacity="0.0"
     inkscape:pagecheckerboard="0"
     inkscape:deskcolor="#d1d1d1"
     inkscape:document-units="px"
     showgrid="false"
     inkscape:zoom="2.8284271"
     inkscape:cx="159.80613"
     inkscape:cy="35.532116"
     inkscape:window-width="1920"
     inkscape:window-height="1016"
     inkscape:window-x="0"
     inkscape:window-y="0"
     inkscape:window-maximized="1"
     inkscape:current-layer="base"
     inkscape:pageshadow="2"
     fit-margin-top="0"
     fit-margin-left="0"
     fit-margin-right="0"
     fit-margin-bottom="0"
     units="px" /><defs
     id="defs2"><rect
       x="164.47031"
       y="289.42822"
       width="497.66739"
       height="218.7225"
       id="rect19916" /><inkscape:path-effect
       effect="bspline"
       id="path-effect8590"
       is_visible="true"
       lpeversion="1"
       weight="33.333333"
       steps="2"
       helper_size="0"
       apply_no_weight="true"
       apply_with_weight="true"
       only_selected="false" /><filter
       inkscape:collect="always"
       style="color-interpolation-filters:sRGB"
       id="filter24599"
       x="-0.00044815092"
       y="-0.0015107745"
       width="1.0008963"
       height="1.0030215"><feGaussianBlur
         inkscape:collect="always"
         stdDeviation="0.0014777703"
         id="feGaussianBlur24601" /></filter><linearGradient
       inkscape:collect="always"
       xlink:href="#linearGradient24467"
       id="linearGradient18359"
       gradientUnits="userSpaceOnUse"
       x1="164.45145"
       y1="297.62762"
       x2="216.52522"
       y2="297.62762" /></defs><g
     inkscape:label="Base"
     inkscape:groupmode="layer"
     id="base"
     transform="translate(1.477303,2.2381586)"><rect
       style="opacity:1;fill:#354d90;fill-opacity:1;fill-rule:nonzero;stroke:#eef9f9;stroke-width:0.289669;stroke-linecap:round;stroke-linejoin:miter;stroke-dasharray:none;stroke-dashoffset:0;stroke-opacity:1;paint-order:markers stroke fill"
       id="back"
       width="105.54366"
       height="31.460331"
       x="-1.3324683"
       y="-2.0933237" /><path
       id="logo"
       style="fill:#31b7bc;fill-opacity:0;fill-rule:nonzero;stroke:#31b7bc;stroke-width:1.07082;stroke-linecap:round;stroke-linejoin:miter;stroke-dasharray:none;stroke-dashoffset:0;stroke-opacity:1;paint-order:markers stroke fill"
       inkscape:path-effect="#path-effect8590"
       inkscape:original-d="m 21.143116,20.126372 c 0.52847,0.462439 1.056672,0.924616 1.584608,1.386522 0.110311,0.374424 0.22035,0.748556 0.330126,1.122436 M 6.1757486,22.004362 C 6.6475845,21.87052 7.1191481,21.736415 7.5904516,21.602139 7.7793719,21.258901 7.968022,20.915462 8.1564099,20.571811 8.131656,20.386948 8.1066802,20.201874 8.081402,20.016597 M 6.7305096,4.6914922 C 7.0869207,5.2595619 7.4430786,5.8273895 7.7989794,6.3949953 8.0925468,6.8495095 8.3858439,7.3037514 8.678896,7.7577917 M 21.341191,6.9213009 C 21.825644,6.4593958 22.309831,5.9972084 22.79375,5.534769 22.970087,5.2489242 23.146151,4.9628174 23.321952,4.6764382 M 19.605244,2.7404399 C 18.983999,2.9271581 18.362487,3.113614 17.740709,3.2997978 17.399138,3.45545 17.057313,3.6108199 16.715216,3.7659377 16.311492,4.0458839 15.907516,4.3255578 15.503268,4.6049796 14.882009,4.8849257 14.260511,5.1645996 13.638732,5.4440113 13.359311,5.7550435 13.079636,6.0657934 12.79969,6.3762812 12.302738,6.5630094 11.805539,6.7494553 11.308061,6.935639 10.997569,7.029109 10.686817,7.1223672 10.375795,7.215323 9.8788409,7.2466813 9.3816441,7.2777371 8.884166,7.3085913 8.5115182,7.2156255 8.1386173,7.1224076 7.7654442,7.0289073 7.1752634,6.9980532 6.5848396,6.9669973 5.9941355,6.935639 5.7147168,7.0602153 5.4350429,7.1845192 5.1550957,7.308551 4.7824479,7.7438872 4.4095471,8.178931 4.0363739,8.6137227 3.8501821,9.0490589 3.6637342,9.4841128 3.4770141,9.9189046 3.2597473,10.540687 3.0422223,11.162187 2.8244252,11.783434 c -0.030804,0.715021 -0.06188,1.429748 -0.093228,2.144214 0.031348,0.528564 0.062424,1.056836 0.093228,1.584856 0.2178002,0.746096 0.4353251,1.4919 0.6525889,2.237441 0.2488751,0.311032 0.497475,0.621782 0.7458128,0.93227 0.4353332,0.311032 0.870384,0.621782 1.3051757,0.93227 0.3110292,0.155642 0.6217781,0.311022 0.9322658,0.46613 0.7460962,2.72e-4 1.4918959,2.72e-4 2.2374446,0 0.5596372,2.72e-4 1.118986,2.72e-4 1.678082,0 0.528563,0.155652 1.056837,0.311022 1.584855,0.46614 0.497486,0.342108 0.994685,0.683924 1.491629,1.025498 0.497485,0.24887 0.994685,0.497468 1.491629,0.745803 0.373181,0.279957 0.74608,0.55963 1.11872,0.839052 0.497487,0.217794 0.994685,0.435316 1.491628,0.652586 0.683943,0.217794 1.367594,0.435326 2.050988,0.652586 0.497488,-0.124042 0.994688,-0.248336 1.491628,-0.372912 0.559641,-0.310498 1.118989,-0.621248 1.678083,-0.93226 0.373181,-0.37265 0.746082,-0.745551 1.118722,-1.118726 0.311029,-0.559105 0.621778,-1.118453 0.932266,-1.678083 0.186726,-0.37265 0.373176,-0.745542 0.559363,-1.118726 -0.06188,-0.37264 -0.124037,-0.745542 -0.186453,-1.118716 -0.341574,-0.248346 -0.683398,-0.496944 -1.025496,-0.745814 -0.279419,-0.372649 -0.559093,-0.745551 -0.83904,-1.118725 -0.155115,-0.310488 -0.310491,-0.621238 -0.466136,-0.93226 -0.186189,-0.37265 -0.37264,-0.745552 -0.55936,-1.118726 0.06242,-0.341574 0.124568,-0.68339 0.186454,-1.025498 0.0935,-0.279412 0.18672,-0.559096 0.27968,-0.839042 0.217799,-0.372639 0.435325,-0.745541 0.652589,-1.118715 0.2178,-0.310498 0.435325,-0.621248 0.652586,-0.93227 C 24.391159,9.8570046 24.701909,9.4219608 25.012399,8.9866347 25.13697,8.7382888 25.261269,8.489691 25.385306,8.2408208 25.230191,7.712791 25.074815,7.1845192 24.919173,6.6559651 24.670829,6.3143913 24.422229,5.9725654 24.173357,5.6304673 23.95609,5.3510455 23.738565,5.0713716 23.52077,4.7914255 23.303504,4.5430897 23.085978,4.2944818 22.868181,4.0456116 22.588763,3.9215799 22.309088,3.7972759 22.029141,3.6727097 21.656495,3.5486679 21.283593,3.4243639 20.91042,3.2997978 20.47562,3.113604 20.04057,2.9271581 19.605244,2.7404399 Z m -8.25404,0.186456 C 10.636733,2.98931 9.9219944,3.051462 9.2069893,3.1133519 8.5546565,3.424374 7.9020808,3.7351239 7.2492277,4.0456116 6.9387319,4.3877198 6.627983,4.7295457 6.3169589,5.0711094 5.9753881,5.4442937 5.6335642,5.8171855 5.2914661,6.1898252 5.1674263,6.7183894 5.0431273,7.2466612 4.9185592,7.7746809 4.8566692,7.9614091 4.7945224,8.147855 4.7321032,8.3340488 c 0.0935,0.2799461 0.1867232,0.55962 0.279683,0.8390318 0.3110261,0.40426 0.621778,0.808238 0.9322658,1.2119544 0.3421072,0.342108 0.683931,0.683934 1.0254958,1.025498 0.1867221,0.466402 0.3731731,0.932532 0.5593598,1.398399 0.062414,0.435336 0.1245702,0.87038 0.186453,1.305172 -0.2794188,0.652868 -0.5590927,1.305444 -0.8390398,1.957768 -0.4347998,0.466402 -0.8698496,0.932532 -1.3051748,1.398399 -0.3104957,0.342109 -0.6212456,0.683924 -0.9322698,1.025498 2.672e-4,0.217794 2.672e-4,0.435316 0,0.652586 0.062424,0.466402 0.1245712,0.932532 0.186456,1.3984 0.2488752,0.40426 0.4974751,0.808228 0.7458138,1.211943 0.4664102,0.373185 0.9325351,0.746087 1.3984018,1.118726 0.3110292,0.279956 0.621778,0.55963 0.9322658,0.839042 0.5907151,0.217794 1.1811409,0.435326 1.7713086,0.652586 0.5285628,2.62e-4 1.0568368,2.62e-4 1.5848558,0 0.435336,-0.09297 0.870384,-0.186184 1.305175,-0.279684 0.528563,-0.341564 1.056837,-0.6834 1.584855,-1.025488 0.528562,-0.310498 1.056837,-0.621247 1.584856,-0.93227 0.559639,-0.372649 1.118989,-0.745551 1.678082,-1.118725 0.311029,-0.21727 0.621778,-0.434792 0.932268,-0.652586 0.435334,-0.06191 0.870381,-0.124032 1.305173,-0.186456 0.373181,-0.09297 0.746082,-0.186184 1.118722,-0.279674 0.528563,0.124566 1.056837,0.24887 1.584856,0.372902 0.46641,-0.06191 0.932536,-0.124032 1.398401,-0.186456 0.342105,2.72e-4 0.683931,2.72e-4 1.025493,0 0.373182,-0.434792 0.746083,-0.869846 1.118723,-1.305172 0.279952,-0.559106 0.559626,-1.118454 0.839042,-1.678084 0.155648,-0.683409 0.311021,-1.367051 0.466134,-2.050985 2.66e-4,-0.776638 2.66e-4,-1.553518 0,-2.33067 -0.09297,-0.683409 -0.186187,-1.367061 -0.27968,-2.050985 C 26.702811,10.136689 26.485286,9.6084066 26.267488,9.0798627 25.98807,8.7072128 25.708395,8.334311 25.428449,7.9611368 25.180105,7.650639 24.931505,7.3398891 24.682633,7.028867 24.216758,6.998013 23.750634,6.966957 23.284233,6.935599 22.880509,6.998013 22.476533,7.0601752 22.072285,7.122055 21.544256,7.184469 21.015981,7.2466211 20.48743,7.308511 20.083704,7.2155448 19.679731,7.1223269 19.27548,7.0288267 18.871759,6.9358608 18.467783,6.8426429 18.063532,6.7491528 17.721962,6.500807 17.380138,6.2522091 17.038039,6.0033389 16.603239,5.7549931 16.168189,5.5063952 15.732864,5.2575251 15.266986,5.0402553 14.800861,4.8227334 14.334461,4.6049392 13.713207,4.2012134 13.091705,3.7972356 12.469927,3.3929854 12.097279,3.2378676 11.72438,3.0824977 11.351204,2.9268556 Z m 3.674902,-1.4143612 c -0.02883,0.00357 -0.100337,0.011091 -0.243334,0.027628 -0.285996,0.032972 -0.85819,0.099016 -1.309415,0.1980011 -0.451224,0.099016 -0.781582,0.2313659 -1.045761,0.4074666 -0.264178,0.1761007 -0.461961,0.3960223 -0.693005,0.5830631 -0.231045,0.1870408 -0.495122,0.341352 -0.649237,0.5835875 -0.154116,0.2422355 -0.198017,0.5722037 -0.28606,0.8472394 -0.08804,0.2750252 -0.220058,0.4951384 -0.374119,0.7482334 C 10.271115,5.1608487 10.09492,5.4470564 9.9848824,5.7112226 9.874845,5.9753887 9.8306932,6.217362 9.7316483,6.4703965 9.6326024,6.723441 9.4786673,6.9876273 9.3137609,7.1196347 9.1488554,7.2516422 8.9726479,7.2514506 8.8734688,7.4166414 8.7742918,7.5818322 8.7523864,7.9117097 8.697351,8.2748209 8.6423177,8.6379321 8.5540949,9.0340856 8.4550601,9.3091212 8.3560242,9.5841466 8.2458799,9.7383976 8.1028255,9.9364696 7.959771,10.134541 7.7840404,10.376666 7.5749953,10.585708 7.3659502,10.79475 7.1235938,10.971032 6.7824676,11.202116 c -0.3411261,0.231093 -0.7810894,0.517049 -1.3312989,0.858179 -0.5502105,0.34114 -1.2104393,0.737435 -1.6725924,0.99053 -0.4621532,0.253095 -0.7265018,0.36295 -0.869644,0.473117 -0.1431411,0.110178 -0.164981,0.219983 -0.04377,0.385062 0.1212135,0.16509 0.3851558,0.385466 0.7372956,0.517413 0.3521389,0.131947 0.7923139,0.17606 1.199472,0.352231 0.4071581,0.176182 0.7816682,0.484219 1.1338192,0.737294 0.3521509,0.253075 0.6821836,0.451146 1.0342983,0.737304 0.3521136,0.286147 0.7264271,0.660057 1.0014709,1.04523 0.2750427,0.385183 0.4508187,0.781619 0.6158885,1.144771 0.1650698,0.363141 0.3193699,0.69316 0.5064672,1.03429 0.1870973,0.34113 0.4070451,0.693311 0.5830621,1.100475 0.176018,0.407164 0.3082261,0.869422 0.4402929,1.276586 0.132067,0.407165 0.26388,0.759275 0.406945,1.111416 0.143065,0.352141 0.297187,0.703808 0.528352,1.011896 0.231165,0.308078 0.539296,0.572445 0.814412,0.792518 0.275116,0.220083 0.517039,0.396245 0.858181,0.550243 0.341141,0.153999 0.781526,0.286047 1.254704,0.385062 0.473178,0.09902 0.979076,0.164939 1.540243,0.120886 0.561167,-0.04406 1.177661,-0.197941 1.639766,-0.396002 0.462104,-0.198072 0.770204,-0.44063 1.034297,-0.660703 0.264094,-0.220083 0.483957,-0.417953 0.693004,-0.693009 0.209049,-0.275056 0.407175,-0.627136 0.550237,-1.04524 0.14306,-0.418104 0.231132,-0.902202 0.363176,-1.309417 0.132045,-0.407214 0.30818,-0.737304 0.451235,-1.01241 0.143054,-0.275096 0.252779,-0.495159 0.406945,-0.638298 0.154166,-0.143129 0.352685,-0.209153 0.473641,-0.473117 0.120955,-0.263955 0.16482,-0.726465 0.230828,-1.067645 0.06601,-0.341181 0.154067,-0.561345 0.275119,-0.803469 0.121051,-0.242125 0.274871,-0.506079 0.495003,-0.748234 0.220133,-0.242155 0.506234,-0.462318 0.825354,-0.715413 0.319121,-0.253095 0.671189,-0.53889 1.111413,-0.792005 0.440226,-0.253115 0.968618,-0.473268 1.441764,-0.726353 0.473146,-0.253095 0.891279,-0.539152 1.210415,-0.748234 0.319135,-0.209093 0.539213,-0.341402 0.440292,-0.528353 -0.09893,-0.18696 -0.517257,-0.428832 -0.913411,-0.604953 C 25.852988,12.687653 25.479143,12.577355 25.182019,12.445357 24.884896,12.31337 24.664591,12.159623 24.389492,12.016525 24.114393,11.873436 23.784691,11.741479 23.487543,11.532467 23.190394,11.323455 22.925844,11.037177 22.650726,10.718058 22.375609,10.398939 22.089514,10.046677 21.825372,9.6285226 21.56123,9.2103778 21.319588,8.7262497 21.110483,8.2310503 20.901376,7.7358611 20.725141,7.2294998 20.494073,6.6902879 20.263003,6.151076 19.976594,5.5793159 19.712487,5.040104 19.448381,4.5008921 19.206676,3.9944804 18.898597,3.5102817 18.590517,3.0260729 18.215974,2.5638552 17.753835,2.2446356 17.291696,1.9254159 16.741764,1.7496581 16.224534,1.6615724 c -0.376345,-0.046663 -0.798683,-0.099289 -1.198421,-0.149331 2.62e-4,3.623e-4 2.58e-4,5.228e-4 -7e-6,2.933e-4 z"
       d="m 21.143116,20.126372 c 0.528485,0.462421 1.056689,0.924596 1.375718,1.342796 0.319029,0.418201 0.429067,0.792333 0.539016,1.166162 M 6.1757486,22.004362 C 6.6475033,21.870234 7.1190753,21.736159 7.4490777,21.49745 7.77908,21.258741 7.9677306,20.915302 8.049585,20.65114 8.1314394,20.386977 8.1064369,20.201907 8.081402,20.016597 M 6.7305096,4.6914922 C 7.086844,5.25961 7.4429979,5.8274401 7.7677366,6.3384979 8.0924753,6.8495556 8.3857676,7.3038006 8.678896,7.7577917 M 21.341191,6.9213009 c 0.48419,-0.4621807 0.968382,-0.9243632 1.298482,-1.2984666 0.3301,-0.3741034 0.506165,-0.6602096 0.682279,-0.9463961 M 19.512264,2.9269358 c -0.52836,-9.47e-5 -1.149873,0.1863583 -1.631573,0.3572744 -0.4817,0.1709162 -0.823522,0.3262922 -1.196465,0.5438327 -0.372942,0.2175404 -0.776917,0.4972158 -1.289639,0.7768901 -0.512721,0.2796744 -1.13422,0.5593459 -1.584888,0.854602 -0.450668,0.2952561 -0.730343,0.6060062 -1.118713,0.8545771 -0.38837,0.248571 -0.885568,0.4350192 -1.289537,0.5748608 C 10.997481,7.0288145 10.68672,7.1220441 10.282772,7.1842208 9.8788232,7.2463976 9.3816284,7.2774861 8.9465965,7.2464629 8.5115646,7.2154398 8.1386657,7.1222139 7.6569704,7.0600229 7.1752751,6.9978319 6.584853,6.9667432 6.1497128,7.0133171 5.7145726,7.059891 5.4348978,7.1841927 5.1085291,7.4639168 4.7821605,7.7436408 4.4092626,8.1786871 4.129562,8.6138043 3.8498614,9.0489215 3.6634114,9.4839745 3.4614198,10.012275 c -0.2019916,0.5283 -0.4195177,1.1498 -0.5438,1.817984 -0.1242824,0.668184 -0.1553579,1.382911 -0.1553436,2.004439 1.43e-5,0.621529 0.031089,1.149801 0.1554326,1.786877 0.1243431,0.637076 0.3418698,1.382879 0.5750097,1.911153 0.2331399,0.528274 0.4817392,0.839024 0.8236091,1.149745 0.3418699,0.310722 0.7769202,0.621472 1.1498379,0.854512 0.3729176,0.233039 0.6836692,0.388414 1.2119341,0.466022 0.528265,0.07761 1.2740647,0.07761 1.9266577,0.07761 0.6525929,0 1.2119417,0 1.7557967,0.07774 0.543855,0.07774 1.072128,0.233115 1.584875,0.481784 0.512747,0.248668 1.009941,0.59049 1.507165,0.885686 0.497223,0.295195 0.994423,0.543791 1.429475,0.807969 0.435052,0.264178 0.807949,0.543854 1.243024,0.792422 0.435075,0.248567 0.932272,0.466091 1.522715,0.683602 0.590442,0.217512 1.274095,0.435038 1.86447,0.481574 0.590376,0.04654 1.087574,-0.07776 1.615817,-0.2953 0.528244,-0.217534 1.087593,-0.528281 1.553684,-0.87009 0.466091,-0.341808 0.838991,-0.71471 1.1808,-1.180805 0.341809,-0.466095 0.652558,-1.025443 0.901163,-1.491575 0.248606,-0.466131 0.435053,-0.839025 0.497258,-1.211838 0.06221,-0.372812 5.5e-5,-0.745715 -0.201816,-1.056516 -0.201871,-0.310801 -0.543695,-0.5594 -0.854492,-0.87012 -0.310797,-0.31072 -0.590471,-0.683621 -0.808033,-1.025443 -0.217562,-0.341821 -0.372939,-0.65257 -0.543857,-0.994406 -0.170918,-0.341835 -0.357368,-0.714737 -0.419617,-1.072166 -0.06225,-0.357429 -1.01e-4,-0.699245 0.07758,-1.010031 0.07768,-0.310787 0.170909,-0.590469 0.32629,-0.9168 0.155381,-0.326332 0.372909,-0.699233 0.590447,-1.041083 0.217537,-0.341851 0.435062,-0.652601 0.699208,-1.025514 0.264147,-0.3729135 0.574895,-0.8079589 0.792418,-1.1497662 0.217523,-0.3418072 0.341822,-0.590405 0.326355,-0.97875 C 25.230018,7.7128418 25.074644,7.1845693 24.872713,6.7494977 24.670781,6.3144261 24.422181,5.9726004 24.189117,5.6618377 23.956052,5.3510749 23.738528,5.0714004 23.521008,4.8072521 23.303488,4.5431038 23.085958,4.2944991 22.837389,4.1079758 22.58882,3.9214526 22.309143,3.7971532 21.982845,3.6728317 21.656548,3.5485103 21.283645,3.4242078 20.879659,3.2688434 20.475674,3.113479 20.040625,2.9270305 19.512264,2.9269358 Z m -8.518308,0.031026 C 10.636708,2.9890268 9.9219698,3.0511788 9.2382374,3.2376175 8.5545051,3.4240561 7.9019286,3.7348042 7.4201903,4.0611348 6.9384521,4.3874655 6.6277025,4.7292907 6.3014051,5.0866637 5.9751078,5.4440367 5.6332867,5.8169312 5.4002011,6.2676237 5.1671154,6.7183162 5.0428162,7.246588 4.949584,7.6039456 4.8563517,7.9613033 4.7942033,8.1477486 4.809821,8.3808992 c 0.015618,0.2331505 0.108844,0.5128234 0.3108991,0.8546467 0.202055,0.3418233 0.5128058,0.7458022 0.8391225,1.1187001 0.3263166,0.372897 0.6681412,0.714722 0.9322147,1.118733 0.2640736,0.404012 0.4505255,0.870141 0.5747855,1.320731 0.1242601,0.450589 0.1864093,0.885634 0.077593,1.429379 -0.1088159,0.543745 -0.3884901,1.196321 -0.7458388,1.755626 -0.3573487,0.559305 -0.7924015,1.025432 -1.1653145,1.429421 -0.372913,0.403989 -0.6836578,0.745809 -0.8390322,1.025618 -0.1553745,0.279809 -0.1553745,0.497331 -0.1242785,0.839182 0.031096,0.341852 0.093247,0.807981 0.2487054,1.243052 0.1554581,0.435071 0.4040556,0.839041 0.7614806,1.227451 0.357425,0.38841 0.8235502,0.761312 1.2119916,1.087619 0.3884415,0.326306 0.6991899,0.605981 1.1498108,0.85452 0.4506208,0.248539 1.041049,0.466065 1.6003867,0.574769 0.5593377,0.108705 1.0876117,0.108705 1.5692567,0.06207 0.481645,-0.04664 0.916691,-0.139862 1.3983,-0.357393 0.481609,-0.217532 1.009889,-0.559358 1.538186,-0.885656 0.528296,-0.326297 1.05657,-0.637047 1.600389,-0.97888 0.543819,-0.341833 1.103169,-0.714734 1.538227,-1.009954 0.435058,-0.295219 0.745806,-0.512742 1.118804,-0.65258 0.372999,-0.139839 0.808042,-0.201989 1.212012,-0.279686 0.40397,-0.0777 0.776869,-0.17092 1.227532,-0.15532 0.450663,0.0156 0.978938,0.139898 1.476111,0.170919 0.497173,0.03102 0.963296,-0.03113 1.367301,-0.06219 0.404005,-0.03106 0.745831,-0.03106 1.103058,-0.248581 0.357228,-0.21752 0.730131,-0.652572 1.056411,-1.149745 0.32628,-0.497173 0.605954,-1.056521 0.82349,-1.677996 0.217536,-0.621475 0.372909,-1.305117 0.450621,-2.035367 0.07771,-0.730251 0.07771,-1.507131 0.03112,-2.237397 C 27.10657,12.032325 27.013345,11.348674 26.85801,10.742709 26.702676,10.136745 26.485148,9.6084635 26.236587,9.1578544 25.988027,8.7072453 25.708352,8.3343432 25.444212,7.9925044 25.180072,7.6506655 24.931472,7.3399156 24.574122,7.1688557 24.216772,6.9977959 23.750651,6.9667073 23.315557,6.9822127 22.880464,6.9977182 22.476486,7.0598694 22.010354,7.1220251 21.544222,7.1841809 21.015947,7.2463317 20.549848,7.2308421 20.083748,7.2153525 19.679777,7.1221272 19.27579,7.0288998 18.871802,6.9356725 18.467828,6.8424496 18.094911,6.6716058 17.721995,6.5007619 17.380172,6.2521629 16.991729,6.0035361 16.603287,5.7549093 16.168238,5.5063099 15.717639,5.2732255 15.267039,5.040141 14.800915,4.8226171 14.257082,4.5118831 13.713249,4.2011491 13.091747,3.7971707 12.59454,3.517455 12.097332,3.2377393 11.724435,3.0823667 11.537819,3.0046112 11.351204,2.9268556 11.351204,2.9268959 10.993956,2.9579614 Z m 4.017718,-1.4437881 c -0.01443,0.00164 -0.08587,0.00975 -0.299625,0.039378 -0.213754,0.029628 -0.782921,0.1156937 -1.223429,0.2329986 -0.440508,0.1173049 -0.772094,0.2465029 -1.037276,0.4043579 -0.265183,0.1578549 -0.489329,0.3464418 -0.713433,0.5413425 -0.224103,0.1949008 -0.446883,0.3951541 -0.594315,0.619671 -0.147431,0.2245169 -0.251933,0.5340241 -0.361927,0.7984295 -0.109994,0.2644053 -0.224443,0.4933029 -0.36159,0.7551384 -0.137146,0.2618355 -0.298455,0.5562006 -0.411982,0.81634 C 9.8945709,5.9819686 9.8175178,6.2129671 9.7024947,6.4536797 9.5874716,6.6943922 9.4221453,6.9512465 9.2806864,7.0943079 9.1392274,7.2373693 9.0182148,7.3190004 8.9275723,7.4568437 8.8369298,7.5946869 8.7710822,7.9155465 8.6924672,8.2734052 8.6138521,8.6312639 8.521289,9.0264006 8.4176029,9.2934527 8.3139169,9.5605048 8.2216686,9.7248038 8.0853081,9.9252727 7.9489476,10.125742 7.7605034,10.35753 7.5519711,10.561669 7.3434389,10.765807 7.1070028,10.949701 6.7716227,11.1875 6.4362425,11.425299 5.99521,11.709596 5.4447303,12.049853 4.8942507,12.390109 4.2316984,12.78248 3.7737108,13.042557 c -0.4579876,0.260076 -0.7080802,0.396136 -0.7935244,0.501178 -0.085444,0.105043 -0.098045,0.215898 -0.027114,0.346319 0.070931,0.130421 0.3514009,0.327246 0.6803202,0.484641 0.3289193,0.157395 0.7460755,0.279895 1.1406432,0.461143 0.3945677,0.181249 0.7985568,0.443953 1.1566931,0.687889 0.3581362,0.243936 0.6705885,0.466669 1.0106907,0.760636 0.3401021,0.293968 0.7060437,0.675899 0.9792967,1.051745 0.273253,0.375845 0.4781168,0.756632 0.6600811,1.110938 0.1819642,0.354305 0.3421544,0.68144 0.518682,1.027846 0.1765277,0.346405 0.3704334,0.712384 0.5460517,1.116819 0.1756182,0.404434 0.3321563,0.858301 0.4754625,1.261429 0.143307,0.403129 0.272573,0.756171 0.42544,1.102223 0.152866,0.346052 0.330167,0.685616 0.554486,0.986773 0.224319,0.301156 0.514717,0.583746 0.78785,0.800581 0.273134,0.216835 0.52462,0.378082 0.85797,0.532487 0.333349,0.154405 0.772863,0.28929 1.241976,0.378668 0.469112,0.08938 0.977055,0.129243 1.524351,0.08575 0.547295,-0.04349 1.16493,-0.192647 1.61487,-0.384351 0.44994,-0.191704 0.778793,-0.401773 1.043536,-0.614612 0.264744,-0.212839 0.473609,-0.421707 0.674003,-0.693503 0.200395,-0.271797 0.388511,-0.629146 0.549152,-1.034862 0.160642,-0.405716 0.29161,-0.877917 0.435414,-1.278397 0.143805,-0.40048 0.295736,-0.741358 0.441759,-1.012931 0.146023,-0.271573 0.277487,-0.477776 0.406572,-0.637888 0.129086,-0.160111 0.261467,-0.292346 0.387691,-0.527078 0.126224,-0.234733 0.223713,-0.685649 0.316168,-1.018242 0.09246,-0.332592 0.169172,-0.556639 0.286761,-0.795606 0.11759,-0.238967 0.285879,-0.493349 0.497874,-0.734634 0.211995,-0.241285 0.484323,-0.477338 0.803694,-0.728629 0.31937,-0.251292 0.687936,-0.513936 1.120137,-0.774649 0.432201,-0.260714 0.942091,-0.517593 1.409385,-0.779063 0.467295,-0.26147 0.897765,-0.52757 1.176785,-0.768017 0.27902,-0.240446 0.434285,-0.426765 0.382568,-0.508881 -0.05172,-0.08211 -0.453846,-0.348445 -0.833678,-0.545531 C 25.845925,12.705667 25.48441,12.563921 25.190677,12.427513 24.896944,12.291104 24.662182,12.164076 24.389235,12.016989 24.116289,11.869903 23.805332,11.703018 23.517901,11.492648 23.230469,11.282277 22.951519,11.010796 22.674167,10.696835 22.396815,10.382875 22.122949,10.021349 21.861998,9.6056791 21.601047,9.1900092 21.354635,8.7083211 21.132746,8.2201947 20.910856,7.7320684 20.711912,7.2347923 20.477525,6.6976383 20.243139,6.1604843 19.969474,5.5826881 19.700057,5.0465095 19.430639,4.510331 19.167334,4.015411 18.843207,3.5530493 18.519079,3.0906876 18.120595,2.6501245 17.682341,2.3502064 17.244087,2.0502884 16.705443,1.8449243 16.27683,1.7298026 15.848217,1.6146809 15.425879,1.5620549 15.225993,1.5372948 c -0.199887,-0.02476 -0.199887,-0.02476 -0.214319,-0.023122 z"
       sodipodi:nodetypes="cccccccccccccccccccccccccccccccccccccccccccccccccccccccccccccccccccccccccccccccccccccccccccccccccccccccccccccccccccccccssscsssssscssccsccscsccsssssccsscccsssscssssssccscccssscsscsczc" /><text
       xml:space="preserve"
       transform="matrix(0.24077188,0,0,0.26467667,-23.718701,-93.741499)"
       id="text"
       style="font-style:normal;font-variant:normal;font-weight:normal;font-stretch:normal;font-size:37.3333px;line-height:0.7;font-family:Calibri;-inkscape-font-specification:'Calibri, Normal';font-variant-ligatures:normal;font-variant-caps:normal;font-variant-numeric:normal;font-variant-east-asian:normal;writing-mode:lr-tb;white-space:pre;shape-inside:url(#rect19916);shape-padding:58.5623;display:inline;opacity:0.99;fill:#ffffff;fill-opacity:1;fill-rule:nonzero;stroke:url(#linearGradient18359);stroke-width:0.234331;stroke-linecap:round;stroke-linejoin:miter;stroke-dasharray:none;stroke-dashoffset:0;stroke-opacity:1;paint-order:markers stroke fill;filter:url(#filter24599)"
       x="191.1763"
       y="0"><tspan
         x="223.0332"
         y="390.22762"
         id="tspan24072"><tspan
           style="font-weight:bold;-inkscape-font-specification:'Calibri Bold';opacity:0.95;fill-rule:evenodd"
           id="tspan24070">DM BON
</tspan></tspan><tspan
         x="223.0332"
         y="416.36092"
         id="tspan24076"><tspan
           style="font-weight:300;font-size:19.5645px;-inkscape-font-specification:'Calibri Light';letter-spacing:-0.0943288px"
           id="tspan24074">Data Management 
</tspan></tspan><tspan
         x="223.0332"
         y="442.49422"
         id="tspan24080"><tspan
           dx="0 0 0 0 0 0 0 0 0 0 0 0 0 0 0 0 0 0 0 0 0 0.094328798 -0.094331823"
           style="font-weight:300;font-size:19.5645px;-inkscape-font-specification:'Calibri Light';letter-spacing:-0.0943288px"
           id="tspan24078">Biodiversity Observation Networks</tspan></tspan></text></g></svg>
